HIERARCHY
ROOT joint_Root
{
	OFFSET 0.0 0.0 0.0
	CHANNELS 6 Xposition Yposition Zposition Zrotation Xrotation Yrotation 
	JOINT Hips
	{
		OFFSET -0.726466 93.3139 -2.00062
		CHANNELS 6 Xposition Yposition Zposition Zrotation Xrotation Yrotation 
		JOINT Spine
		{
			OFFSET 15.7357 0.0 0.0
			CHANNELS 6 Xposition Yposition Zposition Zrotation Xrotation Yrotation 
			JOINT Chest
			{
				OFFSET 8.98455 -0.406207 0.0
				CHANNELS 6 Xposition Yposition Zposition Zrotation Xrotation Yrotation 
				JOINT Neck
				{
					OFFSET 16.3773 0.0 0.0
					CHANNELS 6 Xposition Yposition Zposition Zrotation Xrotation Yrotation 
					JOINT Head
					{
						OFFSET 6.45672 0.0 0.0
						CHANNELS 6 Xposition Yposition Zposition Zrotation Xrotation Yrotation 
						End Site
						{
							OFFSET 0.0 0.0 0.0
						}
					}
				}
				JOINT Shoulder_L
				{
					OFFSET 12.9942 -0.242716 4.98039
					CHANNELS 6 Xposition Yposition Zposition Zrotation Xrotation Yrotation 
					JOINT UpperArm_L
					{
						OFFSET 5.34809 0.0 0.0
						CHANNELS 6 Xposition Yposition Zposition Zrotation Xrotation Yrotation 
						JOINT LowerArm_L
						{
							OFFSET 24.3286 1.87007e-05 0.0
							CHANNELS 6 Xposition Yposition Zposition Zrotation Xrotation Yrotation 
							JOINT Hand_L
							{
								OFFSET 22.2916 0.0 0.0
								CHANNELS 6 Xposition Yposition Zposition Zrotation Xrotation Yrotation 
								End Site
								{
									OFFSET 0.0 0.0 0.0
								}
							}
						}
					}
				}
				JOINT Shoulder_R
				{
					OFFSET 12.9945 -0.242716 -4.98039
					CHANNELS 6 Xposition Yposition Zposition Zrotation Xrotation Yrotation 
					JOINT UpperArm_R
					{
						OFFSET -5.34813 0.0 0.0
						CHANNELS 6 Xposition Yposition Zposition Zrotation Xrotation Yrotation 
						JOINT LowerArm_R
						{
							OFFSET -24.3289 0.000322201 0.0
							CHANNELS 6 Xposition Yposition Zposition Zrotation Xrotation Yrotation 
							JOINT Hand_R
							{
								OFFSET -22.2915 -0.000108084 0.0
								CHANNELS 6 Xposition Yposition Zposition Zrotation Xrotation Yrotation 
								End Site
								{
									OFFSET 0.0 0.0 0.0
								}
							}
						}
					}
				}
			}
		}
		JOINT UpperLeg_L
		{
			OFFSET -2.19248 -6.46944 0.0
			CHANNELS 6 Xposition Yposition Zposition Zrotation Xrotation Yrotation 
			JOINT LowerLeg_L
			{
				OFFSET 39.0811 0.0 -1.23785e-05
				CHANNELS 6 Xposition Yposition Zposition Zrotation Xrotation Yrotation 
				JOINT Foot_L
				{
					OFFSET 40.9854 0.0 -1.26872e-05
					CHANNELS 6 Xposition Yposition Zposition Zrotation Xrotation Yrotation 
					JOINT Toes_L
					{
						OFFSET 11.7543 0.0 0.0
						CHANNELS 6 Xposition Yposition Zposition Zrotation Xrotation Yrotation 
						End Site
						{
							OFFSET 0.0 0.0 0.0
						}
					}
				}
			}
		}
		JOINT UpperLeg_R
		{
			OFFSET -2.19251 6.46944 0.0
			CHANNELS 6 Xposition Yposition Zposition Zrotation Xrotation Yrotation 
			JOINT LowerLeg_R
			{
				OFFSET -39.0811 -0.00228153 -0.0401928
				CHANNELS 6 Xposition Yposition Zposition Zrotation Xrotation Yrotation 
				JOINT Foot_R
				{
					OFFSET -40.9854 0.0 0.0
					CHANNELS 6 Xposition Yposition Zposition Zrotation Xrotation Yrotation 
					JOINT Toes_R
					{
						OFFSET -11.7543 0.0 0.0
						CHANNELS 6 Xposition Yposition Zposition Zrotation Xrotation Yrotation 
						End Site
						{
							OFFSET 0.0 0.0 0.0
						}
					}
				}
			}
		}
	}
}
MOTION
Frames:	4
Frame Time:	0.0333333
0.000000 0.000000 0.000000 0.000000 0.000000 -0.000000 116.928000 88.523700 158.422000 -87.313600 37.769200 -176.238000 15.735700 0.000005 -0.000001 100.674000 82.471200 -100.792000 8.984550 -0.406207 -0.000000 7.040300 2.779970 -0.408276 16.377300 -0.000001 -0.000001 5.091230 6.613720 -0.068665 6.456720 -0.000001 -0.000000 3.632110 8.510550 -3.310240 12.994200 -0.242716 4.980390 -89.474700 -1.305430 -68.076800 5.348090 -0.000007 -0.000001 -78.235300 23.613100 -2.783820 24.328600 0.000019 0.000005 2.281000 9.542460 -13.516100 22.291600 -0.000001 0.000005 -1.307900 5.344240 -1.203900 12.994500 -0.242716 -4.980390 88.320100 5.701290 -73.552800 -5.348130 -0.000001 -0.000004 -62.100400 27.934500 -20.824800 -24.328900 0.000322 -0.000009 2.411460 5.594480 -23.373800 -22.291500 -0.000108 -0.000004 9.408840 5.415950 -3.461800 -2.192480 -6.469440 -0.000000 173.347000 -9.106370 -22.686300 39.081100 -0.000007 -0.000012 -0.013376 0.018626 35.685900 40.985400 -0.000006 -0.000013 8.506940 -12.479400 -59.299100 11.754300 -0.000000 0.000003 -0.001575 -0.023274 -17.523100 -2.192510 6.469440 -0.000001 170.792000 10.357500 178.340000 -39.081100 -0.002282 -0.040193 0.201114 -0.120462 58.672000 -40.985400 0.000008 0.000006 2.185930 -4.353830 -33.776600 -11.754300 -0.000006 -0.000006 -0.033024 -0.231004 -26.044500
0.000000 0.000000 0.000000 0.000000 0.000000 -0.000000 118.329000 88.722500 155.240000 -87.909500 35.312100 -175.562000 15.735700 0.000005 -0.000001 96.874400 82.463000 -97.092200 8.984550 -0.406207 -0.000000 7.205690 1.798840 -0.548314 16.377300 -0.000001 -0.000001 5.179150 6.389230 -0.486100 6.456720 -0.000001 -0.000000 3.775280 8.584850 -3.156000 12.994200 -0.242716 4.980390 -89.608600 -0.981668 -68.261400 5.348090 -0.000007 -0.000001 -77.576500 28.795600 -5.778050 24.328600 0.000019 0.000005 2.419770 7.724850 -17.459200 22.291600 -0.000001 0.000005 -0.069894 5.381070 -2.315380 12.994500 -0.242716 -4.980390 88.160200 6.040830 -73.026300 -5.348130 -0.000001 -0.000004 -63.546800 30.344600 -17.396000 -24.328900 0.000322 -0.000009 2.719330 6.755740 -21.997900 -22.291500 -0.000108 -0.000004 7.199570 5.414730 -3.422080 -2.192480 -6.469440 -0.000000 172.458000 -8.884100 -19.913900 39.081100 -0.000007 -0.000012 -0.005693 0.007802 36.124700 40.985400 -0.000006 -0.000013 8.743260 -10.995500 -62.271100 11.754300 -0.000000 0.000003 -0.001264 -0.019099 -17.353400 -2.192510 6.469440 -0.000001 171.397000 7.628730 173.911000 -39.081100 -0.002282 -0.040193 0.130823 -0.058402 65.417100 -40.985400 0.000008 0.000006 1.806470 -2.688050 -35.187800 -11.754300 -0.000006 -0.000006 -0.028271 -0.209428 -25.148800
0.000000 0.000000 0.000000 0.000000 0.000000 -0.000000 119.746000 89.147100 152.266000 -87.492400 32.108700 -175.364000 15.735700 0.000005 -0.000001 91.716200 82.424500 -91.674700 8.984550 -0.406207 -0.000000 7.378260 0.451938 0.053945 16.377300 -0.000001 -0.000001 5.509390 5.977260 -0.828000 6.456720 -0.000001 -0.000000 3.984520 8.793480 -3.117070 12.994200 -0.242716 4.980390 -89.694700 -0.782343 -68.681800 5.348090 -0.000007 -0.000001 -75.604900 34.173500 -9.576340 24.328600 0.000019 0.000005 2.392610 5.951530 -21.957900 22.291600 -0.000001 0.000005 2.724360 5.436230 -4.134210 12.994500 -0.242716 -4.980390 88.115000 5.919980 -72.302000 -5.348130 -0.000001 -0.000004 -65.593500 32.102500 -14.091700 -24.328900 0.000322 -0.000009 3.390990 9.228730 -20.286600 -22.291500 -0.000108 -0.000004 5.612350 5.409890 -3.259660 -2.192480 -6.469440 -0.000000 172.655000 -7.106620 -16.434700 39.081100 -0.000007 -0.000012 -0.003735 0.005262 35.370600 40.985400 -0.000006 -0.000013 8.774610 -10.051300 -64.358800 11.754300 -0.000000 0.000003 -0.001057 -0.016215 -17.236200 -2.192510 6.469440 -0.000001 172.685000 6.229240 170.224000 -39.081100 -0.002282 -0.040193 0.063771 -0.022998 69.233100 -40.985400 0.000008 0.000006 1.412980 -0.285084 -39.510500 -11.754300 -0.000006 -0.000006 -0.027332 -0.204964 -24.963900
0.000000 0.000000 0.000000 0.000000 0.000000 -0.000000 121.151000 89.650900 149.513000 -86.608100 28.548700 -175.243000 15.735700 0.000005 -0.000001 87.075600 82.311900 -86.533000 8.984550 -0.406207 -0.000000 7.594570 -0.782193 1.135990 16.377300 -0.000001 -0.000001 5.980310 5.160870 -1.044630 6.456720 -0.000001 -0.000000 4.208100 8.790550 -3.033830 12.994200 -0.242716 4.980390 -89.684700 -0.845072 -69.536400 5.348090 -0.000007 -0.000001 -72.526300 39.214600 -14.519600 24.328600 0.000019 0.000005 2.242020 4.525430 -26.397900 22.291600 -0.000001 0.000005 5.525730 5.481490 -5.783860 12.994500 -0.242716 -4.980390 88.237300 5.253160 -71.420000 -5.348130 -0.000001 -0.000004 -68.317300 32.078400 -10.366300 -24.328900 0.000322 -0.000009 3.790830 11.145400 -18.926200 -22.291500 -0.000108 -0.000004 4.621680 5.396520 -2.823740 -2.192480 -6.469440 -0.000000 173.491000 -5.456260 -12.642000 39.081100 -0.000007 -0.000012 0.006938 -0.010290 33.983200 40.985400 -0.000006 -0.000013 8.925730 -8.372740 -66.020300 11.754300 -0.000000 0.000003 -0.000805 -0.012600 -17.089300 -2.192510 6.469440 -0.000001 174.226000 5.870920 167.022000 -39.081100 -0.002282 -0.040193 0.032366 -0.010784 69.762200 -40.985400 0.000008 0.000006 0.128756 -1.540920 -41.671700 -11.754300 -0.000006 -0.000006 -0.026234 -0.199654 -24.744100
